<svg xmlns="http://www.w3.org/2000/svg" viewBox="0 0 120 120" fill="none">
  <!-- Outer circle -->
  <circle cx="60" cy="60" r="56" fill="#1B4E3B" stroke="#C9A84C" stroke-width="2.5"/>
  
  <!-- Tooth shape -->
  <path d="M44 38 C44 38 38 40 38 50 C38 60 40 65 42 70 C43.5 74 46 76 48 72 C50 68 52 68 54 72 C56 76 58 74 60 70 C62 66 60 58 60 50 C60 42 56 38 50 38 Z" fill="#F7F3EE" opacity="0.92"/>
  
  <!-- Sparkle / plus symbol -->
  <line x1="72" y1="42" x2="72" y2="58" stroke="#C9A84C" stroke-width="3" stroke-linecap="round"/>
  <line x1="64" y1="50" x2="80" y2="50" stroke="#C9A84C" stroke-width="3" stroke-linecap="round"/>
  
  <!-- Small dot accent -->
  <circle cx="72" cy="68" r="3" fill="#C9A84C" opacity="0.7"/>
  <circle cx="72" cy="76" r="2" fill="#C9A84C" opacity="0.4"/>
</svg>
